<?xml version="1.0" encoding="UTF-8"?>
<svg xmlns="http://www.w3.org/2000/svg" xmlns:xlink="http://www.w3.org/1999/xlink" viewBox="0 0 22 22" width="22px" height="22px">
<g id="surface52182073">
<path style=" stroke:none;fill-rule:evenodd;fill:rgb(0%,0%,0%);fill-opacity:1;" d="M 20.507812 8.988281 L 20.539062 9.050781 L 20.566406 9.113281 L 20.597656 9.175781 L 20.625 9.242188 L 20.652344 9.304688 L 20.683594 9.371094 L 20.730469 9.503906 L 20.757812 9.570312 L 20.78125 9.636719 L 20.847656 9.84375 L 20.867188 9.910156 L 20.890625 9.984375 L 20.910156 10.054688 L 20.925781 10.125 L 20.945312 10.199219 L 20.976562 10.339844 L 21.007812 10.488281 L 21.019531 10.566406 L 21.042969 10.714844 L 21.066406 10.871094 L 21.089844 11.105469 L 21.105469 11.269531 L 21.109375 11.347656 L 21.113281 11.429688 L 21.117188 11.515625 L 21.117188 11.597656 L 21.121094 11.683594 L 21.121094 11.859375 L 21.117188 11.949219 L 21.117188 12.042969 L 21.113281 12.21875 L 21.105469 12.398438 L 21.101562 12.484375 L 21.085938 12.742188 L 21.078125 12.828125 L 21.0625 12.992188 L 21.054688 13.078125 L 21.046875 13.160156 L 21.035156 13.242188 L 21.027344 13.320312 L 21.015625 13.402344 L 21.003906 13.480469 L 20.996094 13.558594 L 20.984375 13.636719 L 20.96875 13.714844 L 20.957031 13.792969 L 20.929688 13.941406 L 20.867188 14.238281 L 20.835938 14.378906 L 20.800781 14.523438 L 20.78125 14.59375 L 20.742188 14.730469 L 20.726562 14.796875 L 20.664062 14.996094 L 20.640625 15.0625 L 20.621094 15.128906 L 20.574219 15.253906 L 20.550781 15.320312 L 20.527344 15.382812 L 20.503906 15.441406 L 20.480469 15.503906 L 20.402344 15.683594 L 20.378906 15.742188 L 20.324219 15.859375 L 20.242188 16.03125 L 20.214844 16.085938 L 20.15625 16.195312 L 20.128906 16.25 L 20.097656 16.304688 L 20.070312 16.355469 L 20.039062 16.410156 L 19.882812 16.664062 L 19.851562 16.710938 L 19.820312 16.761719 L 19.785156 16.808594 L 19.753906 16.855469 L 19.71875 16.902344 L 19.6875 16.949219 L 19.617188 17.042969 L 19.582031 17.085938 L 19.550781 17.132812 L 19.511719 17.175781 L 19.480469 17.21875 L 19.40625 17.304688 L 19.335938 17.390625 L 19.296875 17.429688 L 19.261719 17.472656 L 19.222656 17.511719 L 19.109375 17.632812 L 18.996094 17.746094 L 18.917969 17.816406 L 18.878906 17.855469 L 18.722656 17.996094 L 18.679688 18.027344 L 18.640625 18.0625 L 18.601562 18.09375 L 18.5625 18.128906 L 18.476562 18.191406 L 18.398438 18.253906 L 18.3125 18.316406 L 18.191406 18.40625 L 17.890625 18.597656 L 17.804688 18.648438 L 17.761719 18.671875 L 17.71875 18.699219 L 17.417969 18.863281 L 17.375 18.882812 L 17.285156 18.925781 L 17.199219 18.96875 L 17.023438 19.046875 L 16.933594 19.085938 L 16.847656 19.121094 L 16.757812 19.15625 L 16.671875 19.191406 L 16.582031 19.222656 L 16.40625 19.285156 L 16.234375 19.339844 L 16.144531 19.367188 L 16.058594 19.394531 L 15.714844 19.488281 L 15.542969 19.527344 L 15.378906 19.566406 L 15.296875 19.582031 L 15.210938 19.597656 L 15.050781 19.628906 L 14.886719 19.65625 L 14.652344 19.691406 L 14.578125 19.699219 L 14.425781 19.71875 L 14.351562 19.726562 L 14.28125 19.734375 L 14.207031 19.742188 L 14.136719 19.75 L 13.996094 19.757812 L 13.929688 19.765625 L 13.796875 19.773438 L 13.734375 19.777344 L 13.609375 19.78125 L 13.492188 19.789062 L 13.378906 19.792969 L 13.273438 19.792969 L 13.171875 19.796875 L 12.109375 19.796875 L 11 19.800781 L 9.890625 19.796875 L 8.828125 19.796875 L 8.726562 19.792969 L 8.621094 19.792969 L 8.507812 19.789062 L 8.390625 19.78125 L 8.265625 19.777344 L 8.203125 19.773438 L 8.070312 19.765625 L 8.003906 19.757812 L 7.863281 19.75 L 7.792969 19.742188 L 7.71875 19.734375 L 7.648438 19.726562 L 7.574219 19.71875 L 7.421875 19.699219 L 7.347656 19.691406 L 7.113281 19.65625 L 6.949219 19.628906 L 6.789062 19.597656 L 6.703125 19.582031 L 6.621094 19.566406 L 6.457031 19.527344 L 6.285156 19.488281 L 5.941406 19.394531 L 5.855469 19.367188 L 5.765625 19.339844 L 5.59375 19.285156 L 5.417969 19.222656 L 5.328125 19.191406 L 5.242188 19.15625 L 5.152344 19.121094 L 5.066406 19.085938 L 4.976562 19.046875 L 4.800781 18.96875 L 4.714844 18.925781 L 4.625 18.882812 L 4.582031 18.863281 L 4.28125 18.699219 L 4.238281 18.671875 L 4.195312 18.648438 L 4.109375 18.597656 L 3.808594 18.40625 L 3.6875 18.316406 L 3.601562 18.253906 L 3.523438 18.191406 L 3.4375 18.128906 L 3.398438 18.09375 L 3.359375 18.0625 L 3.320312 18.027344 L 3.277344 17.996094 L 3.121094 17.855469 L 3.082031 17.816406 L 3.003906 17.746094 L 2.890625 17.632812 L 2.777344 17.511719 L 2.738281 17.472656 L 2.703125 17.429688 L 2.664062 17.390625 L 2.59375 17.304688 L 2.519531 17.21875 L 2.488281 17.175781 L 2.449219 17.132812 L 2.417969 17.085938 L 2.382812 17.042969 L 2.3125 16.949219 L 2.28125 16.902344 L 2.246094 16.855469 L 2.214844 16.808594 L 2.179688 16.761719 L 2.148438 16.710938 L 2.117188 16.664062 L 1.960938 16.410156 L 1.929688 16.355469 L 1.902344 16.304688 L 1.871094 16.25 L 1.84375 16.195312 L 1.785156 16.085938 L 1.757812 16.03125 L 1.675781 15.859375 L 1.621094 15.742188 L 1.597656 15.683594 L 1.519531 15.503906 L 1.496094 15.441406 L 1.472656 15.382812 L 1.449219 15.320312 L 1.425781 15.253906 L 1.378906 15.128906 L 1.359375 15.0625 L 1.335938 14.996094 L 1.273438 14.796875 L 1.257812 14.730469 L 1.21875 14.59375 L 1.199219 14.523438 L 1.164062 14.378906 L 1.132812 14.238281 L 1.070312 13.941406 L 1.042969 13.792969 L 1.03125 13.714844 L 1.015625 13.636719 L 1.003906 13.558594 L 0.996094 13.480469 L 0.984375 13.402344 L 0.972656 13.320312 L 0.964844 13.242188 L 0.953125 13.160156 L 0.945312 13.078125 L 0.9375 12.992188 L 0.921875 12.828125 L 0.914062 12.742188 L 0.898438 12.484375 L 0.894531 12.398438 L 0.886719 12.21875 L 0.882812 12.042969 L 0.882812 11.949219 L 0.878906 11.859375 L 0.878906 11.683594 L 0.882812 11.597656 L 0.882812 11.515625 L 0.886719 11.429688 L 0.890625 11.347656 L 0.894531 11.269531 L 0.910156 11.105469 L 0.933594 10.871094 L 0.957031 10.714844 L 0.980469 10.566406 L 0.992188 10.488281 L 1.023438 10.339844 L 1.054688 10.199219 L 1.074219 10.125 L 1.089844 10.054688 L 1.109375 9.984375 L 1.132812 9.910156 L 1.152344 9.84375 L 1.21875 9.636719 L 1.242188 9.570312 L 1.269531 9.503906 L 1.316406 9.371094 L 1.347656 9.304688 L 1.375 9.242188 L 1.402344 9.175781 L 1.433594 9.113281 L 1.460938 9.050781 L 1.523438 8.925781 L 1.589844 8.800781 L 1.621094 8.742188 L 1.65625 8.679688 L 1.761719 8.503906 L 1.835938 8.386719 L 1.914062 8.269531 L 1.953125 8.214844 L 1.992188 8.15625 L 2.078125 8.046875 L 2.117188 7.992188 L 2.203125 7.878906 L 2.25 7.828125 L 2.335938 7.71875 L 2.382812 7.667969 L 2.429688 7.613281 L 2.476562 7.5625 L 2.523438 7.507812 L 2.519531 7.476562 L 2.511719 7.445312 L 2.507812 7.410156 L 2.5 7.375 L 2.496094 7.332031 L 2.492188 7.292969 L 2.484375 7.25 L 2.480469 7.203125 L 2.476562 7.160156 L 2.472656 7.109375 L 2.46875 7.0625 L 2.464844 7.007812 L 2.464844 6.957031 L 2.460938 6.902344 L 2.457031 6.84375 L 2.457031 6.785156 L 2.453125 6.726562 L 2.453125 6.46875 L 2.457031 6.402344 L 2.457031 6.332031 L 2.464844 6.191406 L 2.464844 6.117188 L 2.472656 5.96875 L 2.476562 5.890625 L 2.492188 5.734375 L 2.523438 5.40625 L 2.546875 5.234375 L 2.570312 5.058594 L 2.585938 4.972656 L 2.601562 4.882812 L 2.632812 4.699219 L 2.648438 4.609375 L 2.707031 4.328125 L 2.726562 4.230469 L 2.75 4.136719 L 2.796875 3.941406 L 2.90625 3.550781 L 2.96875 3.351562 L 3 3.25 L 3.105469 2.945312 L 3.179688 2.742188 L 3.222656 2.640625 L 3.246094 2.644531 L 3.273438 2.648438 L 3.3125 2.652344 L 3.363281 2.664062 L 3.425781 2.675781 L 3.496094 2.6875 L 3.582031 2.707031 L 3.625 2.71875 L 3.671875 2.726562 L 3.722656 2.738281 L 3.777344 2.753906 L 3.832031 2.765625 L 3.890625 2.785156 L 3.949219 2.800781 L 4.011719 2.820312 L 4.140625 2.855469 L 4.210938 2.878906 L 4.359375 2.925781 L 4.433594 2.953125 L 4.511719 2.980469 L 4.59375 3.007812 L 4.679688 3.035156 L 4.761719 3.070312 L 4.851562 3.101562 L 4.941406 3.136719 L 5.03125 3.175781 L 5.125 3.210938 L 5.222656 3.25 L 5.417969 3.335938 L 5.523438 3.382812 L 5.625 3.429688 L 5.839844 3.53125 L 5.949219 3.582031 L 6.058594 3.640625 L 6.289062 3.753906 L 6.40625 3.816406 L 6.527344 3.882812 L 6.644531 3.949219 L 6.769531 4.015625 L 6.894531 4.085938 L 7.019531 4.160156 L 7.148438 4.234375 L 7.277344 4.3125 L 7.40625 4.394531 L 7.542969 4.476562 L 7.675781 4.558594 L 7.742188 4.605469 L 7.8125 4.648438 L 7.878906 4.691406 L 8.089844 4.832031 L 8.15625 4.878906 L 8.226562 4.925781 L 8.351562 4.894531 L 8.417969 4.878906 L 8.484375 4.867188 L 8.554688 4.851562 L 8.628906 4.839844 L 8.703125 4.824219 L 8.777344 4.8125 L 8.9375 4.789062 L 9.101562 4.769531 L 9.273438 4.746094 L 9.359375 4.738281 L 9.539062 4.722656 L 9.726562 4.707031 L 9.820312 4.703125 L 9.914062 4.695312 L 10.109375 4.683594 L 10.203125 4.683594 L 10.300781 4.679688 L 10.402344 4.675781 L 10.5 4.671875 L 10.699219 4.667969 L 10.898438 4.667969 L 11 4.664062 L 11.101562 4.667969 L 11.300781 4.667969 L 11.5 4.671875 L 11.597656 4.675781 L 11.699219 4.679688 L 11.796875 4.683594 L 11.890625 4.683594 L 11.988281 4.691406 L 12.085938 4.695312 L 12.179688 4.703125 L 12.273438 4.707031 L 12.367188 4.714844 L 12.457031 4.722656 C 12.472656 5.027344 12.515625 5.328125 12.585938 5.617188 L 12.554688 5.613281 L 12.46875 5.605469 L 12.386719 5.601562 L 12.300781 5.59375 L 12.210938 5.585938 L 12.125 5.582031 L 12.03125 5.574219 L 11.851562 5.566406 L 11.757812 5.558594 L 11.574219 5.554688 L 11.476562 5.550781 L 11.382812 5.550781 L 11.285156 5.546875 L 11.097656 5.546875 L 11 5.542969 L 10.902344 5.546875 L 10.714844 5.546875 L 10.617188 5.550781 L 10.523438 5.550781 L 10.425781 5.554688 L 10.242188 5.558594 L 10.148438 5.566406 L 9.96875 5.574219 L 9.789062 5.585938 L 9.699219 5.59375 L 9.613281 5.601562 L 9.53125 5.605469 L 9.445312 5.613281 L 9.285156 5.632812 L 9.207031 5.640625 L 9.132812 5.652344 L 9.058594 5.660156 L 8.984375 5.671875 L 8.917969 5.683594 L 8.847656 5.691406 L 8.722656 5.714844 L 8.664062 5.726562 L 8.554688 5.75 L 8.507812 5.761719 L 8.0625 5.882812 L 7.664062 5.605469 L 7.59375 5.558594 L 7.53125 5.515625 L 7.460938 5.472656 L 7.398438 5.429688 L 7.265625 5.34375 L 7.203125 5.300781 L 7.074219 5.21875 L 6.945312 5.140625 L 6.820312 5.066406 L 6.699219 4.992188 L 6.574219 4.917969 L 6.222656 4.71875 L 6.105469 4.65625 L 5.996094 4.597656 L 5.882812 4.539062 L 5.773438 4.480469 L 5.667969 4.425781 L 5.457031 4.324219 L 5.355469 4.277344 L 5.160156 4.183594 L 5.066406 4.140625 L 4.96875 4.101562 L 4.789062 4.023438 L 4.703125 3.992188 L 4.617188 3.957031 L 4.453125 3.894531 L 4.375 3.863281 L 4.296875 3.835938 L 4.222656 3.808594 L 4.011719 3.738281 L 3.824219 3.679688 L 3.789062 3.671875 L 3.78125 3.710938 L 3.75 3.800781 L 3.699219 3.980469 L 3.675781 4.070312 L 3.652344 4.164062 L 3.628906 4.25 L 3.605469 4.339844 L 3.585938 4.425781 L 3.566406 4.515625 L 3.546875 4.601562 L 3.511719 4.773438 L 3.496094 4.859375 L 3.480469 4.941406 L 3.46875 5.027344 L 3.453125 5.109375 L 3.441406 5.191406 L 3.429688 5.269531 L 3.417969 5.351562 L 3.410156 5.429688 L 3.390625 5.585938 L 3.382812 5.660156 L 3.375 5.738281 L 3.367188 5.8125 L 3.363281 5.882812 L 3.355469 5.957031 L 3.351562 6.023438 L 3.347656 6.09375 L 3.339844 6.230469 L 3.339844 6.292969 L 3.335938 6.359375 L 3.335938 6.8125 L 3.339844 6.863281 L 3.34375 6.910156 L 3.34375 6.957031 L 3.351562 7.042969 L 3.351562 7.082031 L 3.355469 7.121094 L 3.363281 7.15625 L 3.367188 7.191406 L 3.367188 7.21875 L 3.371094 7.25 L 3.375 7.277344 L 3.378906 7.300781 L 3.382812 7.320312 L 3.472656 7.777344 L 3.128906 8.152344 L 3.089844 8.199219 L 3.046875 8.242188 L 3.007812 8.292969 L 2.964844 8.335938 L 2.929688 8.382812 L 2.890625 8.433594 L 2.851562 8.480469 L 2.816406 8.527344 L 2.707031 8.671875 L 2.671875 8.71875 L 2.636719 8.769531 L 2.605469 8.816406 L 2.539062 8.917969 L 2.476562 9.015625 L 2.449219 9.066406 L 2.417969 9.121094 L 2.390625 9.167969 L 2.363281 9.222656 L 2.335938 9.273438 L 2.304688 9.324219 L 2.28125 9.378906 L 2.230469 9.484375 L 2.207031 9.539062 L 2.179688 9.59375 L 2.15625 9.648438 L 2.113281 9.757812 L 2.089844 9.8125 L 2.070312 9.871094 L 2.050781 9.925781 L 1.992188 10.101562 L 1.960938 10.21875 L 1.941406 10.277344 L 1.925781 10.339844 L 1.910156 10.398438 L 1.898438 10.460938 L 1.882812 10.527344 L 1.871094 10.585938 L 1.859375 10.652344 L 1.847656 10.714844 L 1.824219 10.847656 L 1.808594 10.980469 L 1.789062 11.117188 L 1.785156 11.1875 L 1.777344 11.253906 L 1.773438 11.328125 L 1.765625 11.46875 L 1.761719 11.542969 L 1.761719 12.023438 L 1.765625 12.109375 L 1.765625 12.191406 L 1.777344 12.4375 L 1.789062 12.597656 L 1.792969 12.675781 L 1.820312 12.988281 L 1.828125 13.0625 L 1.847656 13.210938 L 1.855469 13.285156 L 1.886719 13.5 L 1.898438 13.570312 L 1.933594 13.777344 L 1.949219 13.847656 L 1.976562 13.980469 L 1.992188 14.046875 L 2.019531 14.175781 L 2.050781 14.304688 L 2.070312 14.367188 L 2.085938 14.425781 L 2.101562 14.488281 L 2.121094 14.550781 L 2.136719 14.609375 L 2.195312 14.785156 L 2.234375 14.898438 L 2.253906 14.957031 L 2.292969 15.066406 L 2.316406 15.121094 L 2.335938 15.175781 L 2.359375 15.230469 L 2.378906 15.28125 L 2.402344 15.335938 L 2.519531 15.589844 L 2.566406 15.683594 L 2.59375 15.734375 L 2.617188 15.78125 L 2.695312 15.921875 L 2.746094 16.011719 L 2.9375 16.3125 L 2.96875 16.351562 L 2.996094 16.390625 L 3.023438 16.433594 L 3.054688 16.472656 L 3.082031 16.511719 L 3.085938 16.515625 L 3.085938 16.507812 L 3.066406 16.46875 L 3.035156 16.382812 L 3.023438 16.34375 L 2.992188 16.257812 L 2.980469 16.214844 L 2.964844 16.171875 L 2.941406 16.085938 L 2.929688 16.039062 L 2.917969 15.996094 L 2.894531 15.90625 L 2.882812 15.859375 L 2.863281 15.769531 L 2.839844 15.679688 L 2.820312 15.585938 L 2.808594 15.496094 L 2.777344 15.304688 L 2.765625 15.210938 L 2.75 15.109375 L 2.734375 14.914062 L 2.726562 14.8125 L 2.714844 14.609375 L 2.710938 14.507812 L 2.707031 14.296875 L 2.707031 14.242188 L 2.722656 13.914062 L 2.730469 13.859375 L 2.734375 13.804688 L 2.742188 13.75 L 2.746094 13.695312 L 2.761719 13.585938 L 2.773438 13.53125 L 2.78125 13.476562 L 2.792969 13.421875 L 2.800781 13.367188 L 2.8125 13.3125 L 2.824219 13.261719 L 2.835938 13.207031 L 2.867188 13.097656 L 2.914062 12.9375 L 2.933594 12.882812 L 2.949219 12.832031 L 2.96875 12.777344 L 2.988281 12.726562 L 3.007812 12.671875 L 3.03125 12.621094 L 3.050781 12.566406 L 3.074219 12.515625 L 3.144531 12.359375 L 3.171875 12.308594 L 3.199219 12.261719 L 3.222656 12.207031 L 3.253906 12.160156 L 3.308594 12.058594 L 3.371094 11.960938 L 3.402344 11.910156 L 3.4375 11.863281 L 3.46875 11.8125 L 3.644531 11.578125 L 3.761719 11.4375 L 3.800781 11.394531 L 3.925781 11.257812 L 4.097656 11.085938 L 4.144531 11.042969 L 4.1875 11.003906 L 4.277344 10.929688 L 4.320312 10.894531 L 4.410156 10.824219 L 4.457031 10.789062 L 4.644531 10.664062 L 4.691406 10.636719 L 4.742188 10.609375 L 4.839844 10.554688 L 4.886719 10.527344 L 5.039062 10.457031 L 5.085938 10.433594 L 5.136719 10.414062 L 5.1875 10.390625 L 5.339844 10.332031 L 5.441406 10.296875 L 5.597656 10.253906 L 5.648438 10.238281 L 5.703125 10.226562 L 5.859375 10.1875 L 5.910156 10.175781 L 5.960938 10.167969 L 6.015625 10.15625 L 6.117188 10.140625 L 6.171875 10.128906 L 6.226562 10.125 L 6.277344 10.113281 L 6.332031 10.109375 L 6.4375 10.097656 L 6.488281 10.089844 L 6.542969 10.085938 L 6.753906 10.070312 L 6.96875 10.058594 L 7.179688 10.054688 L 7.503906 10.054688 L 7.828125 10.066406 L 7.9375 10.070312 L 8.046875 10.078125 L 8.15625 10.082031 L 8.265625 10.089844 L 8.375 10.09375 L 8.488281 10.101562 L 8.707031 10.117188 L 9.152344 10.148438 L 9.601562 10.179688 L 9.941406 10.199219 L 10.398438 10.21875 L 10.625 10.226562 L 11.261719 10.226562 L 11.488281 10.222656 L 11.601562 10.21875 L 11.832031 10.210938 L 11.945312 10.203125 L 12.058594 10.199219 L 12.285156 10.183594 L 12.398438 10.179688 L 12.847656 10.148438 L 13.515625 10.101562 L 13.625 10.09375 L 13.734375 10.089844 L 13.84375 10.082031 L 13.953125 10.078125 L 14.0625 10.070312 L 14.171875 10.066406 L 14.496094 10.054688 L 14.820312 10.054688 L 14.925781 10.058594 L 15.035156 10.058594 L 15.140625 10.066406 L 15.246094 10.070312 L 15.355469 10.078125 L 15.457031 10.085938 L 15.511719 10.089844 L 15.566406 10.097656 L 15.617188 10.101562 L 15.777344 10.125 L 15.828125 10.128906 L 15.882812 10.140625 L 15.984375 10.15625 L 16.039062 10.167969 L 16.089844 10.179688 L 16.140625 10.1875 L 16.195312 10.199219 L 16.246094 10.210938 L 16.300781 10.226562 L 16.402344 10.253906 L 16.558594 10.296875 L 16.660156 10.332031 L 16.8125 10.390625 L 16.863281 10.414062 L 16.914062 10.433594 L 17.015625 10.480469 L 17.0625 10.503906 L 17.113281 10.527344 L 17.160156 10.554688 L 17.210938 10.582031 L 17.257812 10.609375 L 17.308594 10.636719 L 17.355469 10.664062 L 17.542969 10.789062 L 17.589844 10.824219 L 17.632812 10.859375 L 17.726562 10.929688 L 17.769531 10.96875 L 17.8125 11.003906 L 17.855469 11.042969 L 17.902344 11.085938 L 18.074219 11.257812 L 18.117188 11.304688 L 18.160156 11.347656 L 18.238281 11.4375 L 18.277344 11.484375 L 18.390625 11.625 L 18.429688 11.671875 L 18.460938 11.71875 L 18.53125 11.8125 L 18.5625 11.863281 L 18.628906 11.960938 L 18.660156 12.007812 L 18.691406 12.058594 L 18.75 12.160156 L 18.777344 12.207031 L 18.828125 12.308594 L 18.855469 12.359375 L 18.925781 12.515625 L 18.949219 12.566406 L 18.972656 12.621094 L 18.992188 12.671875 L 19.011719 12.726562 L 19.03125 12.777344 L 19.070312 12.882812 L 19.085938 12.9375 L 19.132812 13.097656 L 19.164062 13.207031 L 19.175781 13.261719 L 19.1875 13.3125 L 19.199219 13.367188 L 19.207031 13.421875 L 19.230469 13.53125 L 19.261719 13.75 L 19.269531 13.859375 L 19.277344 13.914062 L 19.292969 14.242188 L 19.292969 14.402344 L 19.289062 14.507812 L 19.28125 14.710938 L 19.265625 14.914062 L 19.257812 15.011719 L 19.238281 15.207031 L 19.226562 15.300781 L 19.210938 15.398438 L 19.179688 15.585938 L 19.164062 15.675781 L 19.121094 15.859375 L 19.097656 15.949219 L 19.078125 16.035156 L 19.050781 16.121094 L 19.039062 16.167969 L 18.984375 16.339844 L 18.96875 16.378906 L 18.953125 16.421875 L 18.9375 16.460938 L 18.925781 16.5 L 18.945312 16.472656 L 18.976562 16.433594 L 19.003906 16.390625 L 19.03125 16.351562 L 19.0625 16.3125 L 19.253906 16.011719 L 19.304688 15.921875 L 19.382812 15.78125 L 19.40625 15.734375 L 19.433594 15.683594 L 19.480469 15.589844 L 19.597656 15.335938 L 19.621094 15.28125 L 19.640625 15.230469 L 19.664062 15.175781 L 19.683594 15.121094 L 19.707031 15.066406 L 19.746094 14.957031 L 19.765625 14.898438 L 19.804688 14.785156 L 19.863281 14.609375 L 19.878906 14.550781 L 19.898438 14.488281 L 19.914062 14.425781 L 19.929688 14.367188 L 19.949219 14.304688 L 19.980469 14.175781 L 20.007812 14.046875 L 20.023438 13.980469 L 20.050781 13.847656 L 20.066406 13.777344 L 20.101562 13.570312 L 20.113281 13.5 L 20.144531 13.285156 L 20.152344 13.210938 L 20.171875 13.0625 L 20.179688 12.988281 L 20.207031 12.675781 L 20.210938 12.597656 L 20.222656 12.4375 L 20.234375 12.191406 L 20.234375 12.109375 L 20.238281 12.023438 L 20.238281 11.542969 L 20.234375 11.46875 L 20.226562 11.328125 L 20.222656 11.253906 L 20.214844 11.1875 L 20.210938 11.117188 L 20.191406 10.980469 L 20.175781 10.847656 L 20.152344 10.714844 L 20.140625 10.652344 L 20.128906 10.585938 L 20.117188 10.527344 L 20.101562 10.460938 L 20.089844 10.398438 L 20.074219 10.339844 L 20.058594 10.277344 L 20.039062 10.21875 L 20.007812 10.101562 L 19.949219 9.925781 L 19.929688 9.871094 L 19.910156 9.8125 L 19.886719 9.757812 L 19.84375 9.648438 L 19.820312 9.59375 L 19.792969 9.539062 L 19.769531 9.484375 L 19.71875 9.378906 L 19.695312 9.324219 L 19.691406 9.324219 C 19.964844 9.214844 20.230469 9.082031 20.476562 8.925781 Z M 7.09375 10.9375 L 6.996094 10.941406 L 6.902344 10.941406 L 6.804688 10.949219 L 6.621094 10.960938 L 6.574219 10.96875 L 6.53125 10.972656 L 6.484375 10.976562 L 6.304688 11 L 6.261719 11.007812 L 6.214844 11.015625 L 6.042969 11.046875 L 6 11.058594 L 5.960938 11.066406 L 5.917969 11.078125 L 5.835938 11.101562 L 5.792969 11.113281 L 5.714844 11.136719 L 5.671875 11.148438 L 5.59375 11.179688 L 5.554688 11.191406 L 5.476562 11.222656 L 5.4375 11.242188 L 5.363281 11.273438 L 5.328125 11.292969 L 5.289062 11.3125 L 5.253906 11.328125 L 5.109375 11.414062 L 5.074219 11.433594 L 4.96875 11.503906 L 4.9375 11.53125 L 4.902344 11.554688 L 4.871094 11.582031 L 4.769531 11.664062 L 4.742188 11.691406 L 4.664062 11.761719 L 4.59375 11.832031 L 4.523438 11.90625 L 4.457031 11.976562 L 4.425781 12.015625 L 4.394531 12.050781 L 4.363281 12.089844 L 4.332031 12.125 L 4.246094 12.238281 L 4.164062 12.355469 L 4.140625 12.390625 L 4.089844 12.472656 L 3.996094 12.628906 L 3.976562 12.667969 L 3.953125 12.710938 L 3.9375 12.75 L 3.914062 12.789062 L 3.894531 12.832031 L 3.878906 12.871094 L 3.859375 12.914062 L 3.84375 12.953125 L 3.828125 12.996094 L 3.808594 13.035156 L 3.796875 13.078125 L 3.765625 13.164062 L 3.753906 13.203125 L 3.738281 13.246094 L 3.703125 13.375 L 3.671875 13.503906 L 3.632812 13.71875 L 3.625 13.765625 L 3.621094 13.808594 L 3.609375 13.894531 L 3.605469 13.941406 L 3.601562 13.984375 L 3.59375 14.074219 L 3.59375 14.164062 L 3.589844 14.207031 L 3.589844 14.394531 L 3.59375 14.484375 L 3.59375 14.578125 L 3.597656 14.667969 L 3.605469 14.753906 L 3.609375 14.84375 L 3.625 15.015625 L 3.636719 15.097656 L 3.648438 15.183594 L 3.660156 15.265625 L 3.671875 15.34375 L 3.6875 15.425781 L 3.703125 15.5 L 3.71875 15.578125 L 3.738281 15.65625 L 3.746094 15.691406 L 3.753906 15.730469 L 3.765625 15.765625 L 3.777344 15.804688 L 3.796875 15.875 L 3.808594 15.914062 L 3.820312 15.945312 L 3.832031 15.984375 L 3.839844 16.015625 L 3.851562 16.054688 L 3.867188 16.085938 L 3.890625 16.15625 L 3.90625 16.1875 L 3.929688 16.257812 L 3.957031 16.320312 L 3.972656 16.355469 L 4.003906 16.417969 L 4.015625 16.449219 L 4.0625 16.542969 L 4.082031 16.570312 L 4.113281 16.632812 L 4.199219 16.78125 L 4.21875 16.808594 L 4.234375 16.835938 L 4.328125 16.972656 L 4.351562 17 L 4.367188 17.027344 L 4.390625 17.054688 L 4.410156 17.082031 L 4.429688 17.105469 L 4.558594 17.257812 L 4.605469 17.304688 L 4.648438 17.351562 L 4.742188 17.445312 L 4.792969 17.488281 L 4.839844 17.53125 L 4.890625 17.574219 L 5.042969 17.699219 L 5.097656 17.738281 L 5.261719 17.851562 L 5.320312 17.890625 L 5.378906 17.925781 L 5.613281 18.058594 L 5.800781 18.152344 L 5.863281 18.179688 L 5.929688 18.210938 L 6.058594 18.265625 L 6.128906 18.289062 L 6.195312 18.320312 L 6.402344 18.390625 L 6.613281 18.460938 L 6.757812 18.5 L 7.054688 18.578125 L 7.132812 18.59375 L 7.207031 18.613281 L 7.519531 18.675781 L 7.683594 18.703125 L 7.761719 18.71875 L 8.007812 18.753906 L 8.09375 18.765625 L 8.175781 18.777344 L 8.261719 18.785156 L 8.34375 18.796875 L 8.429688 18.804688 L 8.515625 18.816406 L 8.6875 18.832031 L 8.777344 18.839844 L 8.953125 18.851562 L 9.039062 18.859375 L 9.128906 18.867188 L 9.21875 18.871094 L 9.308594 18.878906 L 9.492188 18.886719 L 9.671875 18.894531 L 9.859375 18.902344 L 10.042969 18.90625 L 10.234375 18.914062 L 10.421875 18.917969 L 10.613281 18.917969 L 10.804688 18.921875 L 11.257812 18.921875 L 11.449219 18.917969 L 11.640625 18.917969 L 11.828125 18.914062 L 12.015625 18.90625 L 12.203125 18.902344 L 12.292969 18.898438 L 12.386719 18.894531 L 12.476562 18.890625 L 12.570312 18.886719 L 12.75 18.878906 L 12.929688 18.867188 L 13.019531 18.859375 L 13.28125 18.839844 L 13.539062 18.816406 L 13.625 18.804688 L 13.707031 18.796875 L 13.878906 18.777344 L 14.289062 18.71875 L 14.367188 18.703125 L 14.449219 18.691406 L 14.761719 18.628906 L 14.988281 18.578125 L 15.210938 18.519531 L 15.425781 18.460938 L 15.570312 18.414062 L 15.773438 18.34375 L 15.839844 18.320312 L 15.90625 18.289062 L 15.972656 18.265625 L 16.039062 18.238281 L 16.101562 18.210938 L 16.230469 18.152344 L 16.355469 18.089844 L 16.472656 18.027344 L 16.53125 17.992188 L 16.648438 17.925781 L 16.707031 17.890625 L 16.761719 17.851562 L 16.816406 17.816406 L 16.925781 17.738281 L 16.976562 17.699219 L 17.082031 17.617188 L 17.128906 17.574219 L 17.230469 17.488281 L 17.367188 17.351562 L 17.457031 17.257812 L 17.542969 17.15625 L 17.582031 17.105469 L 17.625 17.054688 L 17.664062 17 L 17.757812 16.863281 L 17.773438 16.835938 L 17.8125 16.78125 L 17.898438 16.632812 L 17.929688 16.570312 L 17.945312 16.542969 L 17.976562 16.480469 L 18.003906 16.417969 L 18.019531 16.386719 L 18.03125 16.355469 L 18.046875 16.320312 L 18.0625 16.289062 L 18.074219 16.257812 L 18.089844 16.222656 L 18.101562 16.1875 L 18.113281 16.15625 L 18.125 16.121094 L 18.140625 16.085938 L 18.152344 16.054688 L 18.160156 16.015625 L 18.175781 15.984375 L 18.183594 15.945312 L 18.195312 15.914062 L 18.226562 15.804688 L 18.265625 15.65625 L 18.28125 15.578125 L 18.300781 15.5 L 18.316406 15.425781 L 18.328125 15.34375 L 18.339844 15.265625 L 18.355469 15.183594 L 18.363281 15.097656 L 18.375 15.015625 L 18.390625 14.84375 L 18.394531 14.753906 L 18.40625 14.578125 L 18.410156 14.484375 L 18.410156 14.164062 L 18.40625 14.117188 L 18.40625 14.074219 L 18.402344 14.027344 L 18.394531 13.941406 L 18.378906 13.808594 L 18.375 13.765625 L 18.367188 13.71875 L 18.363281 13.675781 L 18.351562 13.632812 L 18.347656 13.589844 L 18.335938 13.546875 L 18.320312 13.460938 L 18.261719 13.246094 L 18.246094 13.203125 L 18.234375 13.164062 L 18.203125 13.078125 L 18.175781 12.996094 L 18.121094 12.871094 L 18.085938 12.789062 L 18.046875 12.710938 L 18.023438 12.667969 L 17.933594 12.511719 L 17.886719 12.433594 L 17.859375 12.390625 L 17.808594 12.316406 L 17.753906 12.238281 L 17.726562 12.203125 L 17.699219 12.164062 L 17.667969 12.125 L 17.636719 12.089844 L 17.605469 12.050781 L 17.574219 12.015625 L 17.542969 11.976562 L 17.511719 11.941406 L 17.40625 11.832031 L 17.335938 11.761719 L 17.296875 11.726562 L 17.261719 11.691406 L 17.199219 11.636719 L 17.128906 11.582031 L 17.066406 11.53125 L 16.960938 11.457031 L 16.929688 11.433594 L 16.890625 11.414062 L 16.859375 11.390625 L 16.75 11.328125 L 16.710938 11.3125 L 16.675781 11.292969 L 16.523438 11.222656 L 16.445312 11.191406 L 16.40625 11.179688 L 16.328125 11.148438 L 16.285156 11.136719 L 16.246094 11.125 L 16.082031 11.078125 L 16.042969 11.066406 L 16 11.058594 L 15.957031 11.046875 L 15.742188 11.007812 L 15.605469 10.988281 L 15.472656 10.972656 L 15.378906 10.960938 L 15.335938 10.957031 L 15.289062 10.957031 L 15.238281 10.953125 L 15.195312 10.949219 L 15.097656 10.941406 L 15.003906 10.941406 L 14.90625 10.9375 L 14.808594 10.9375 L 14.710938 10.933594 L 14.613281 10.9375 L 14.511719 10.9375 L 14.410156 10.941406 L 14.308594 10.941406 L 14.207031 10.945312 L 14.101562 10.949219 L 13.894531 10.960938 L 13.785156 10.96875 L 13.679688 10.972656 L 13.351562 10.996094 L 12.910156 11.027344 L 12.683594 11.042969 L 12.453125 11.058594 L 12.335938 11.0625 L 12.222656 11.070312 L 12.105469 11.078125 L 11.988281 11.082031 L 11.871094 11.089844 L 11.753906 11.09375 L 11.632812 11.097656 L 11.515625 11.101562 L 11.394531 11.105469 L 11.152344 11.109375 L 10.847656 11.109375 L 10.605469 11.105469 L 10.484375 11.101562 L 10.25 11.09375 L 10.128906 11.089844 L 10.011719 11.082031 L 9.894531 11.078125 L 9.777344 11.070312 L 9.546875 11.058594 L 9.316406 11.042969 L 8.648438 10.996094 L 8.320312 10.972656 L 8.214844 10.96875 L 8.109375 10.960938 L 8.003906 10.957031 L 7.898438 10.949219 L 7.792969 10.945312 L 7.691406 10.941406 L 7.589844 10.941406 L 7.488281 10.9375 L 7.390625 10.9375 L 7.289062 10.933594 Z M 14.535156 12.660156 L 14.570312 12.664062 L 14.609375 12.664062 L 14.679688 12.675781 L 14.785156 12.699219 L 14.855469 12.722656 L 14.886719 12.734375 L 14.921875 12.75 L 14.953125 12.765625 L 15.023438 12.796875 L 15.148438 12.875 L 15.210938 12.921875 L 15.269531 12.972656 L 15.351562 13.054688 L 15.40625 13.113281 L 15.457031 13.175781 L 15.484375 13.207031 L 15.507812 13.238281 L 15.578125 13.34375 L 15.597656 13.378906 L 15.621094 13.417969 L 15.640625 13.453125 L 15.664062 13.492188 L 15.71875 13.613281 L 15.738281 13.652344 L 15.800781 13.824219 L 15.8125 13.867188 L 15.828125 13.914062 L 15.839844 13.960938 L 15.851562 14.003906 L 15.871094 14.097656 L 15.890625 14.195312 L 15.898438 14.238281 L 15.902344 14.289062 L 15.910156 14.335938 L 15.925781 14.539062 L 15.925781 14.742188 L 15.921875 14.792969 L 15.914062 14.890625 L 15.910156 14.941406 L 15.902344 14.992188 L 15.898438 15.039062 L 15.882812 15.136719 L 15.871094 15.183594 L 15.851562 15.273438 L 15.828125 15.367188 L 15.800781 15.453125 L 15.753906 15.582031 L 15.71875 15.667969 L 15.699219 15.707031 L 15.683594 15.746094 L 15.664062 15.785156 L 15.621094 15.863281 L 15.597656 15.898438 L 15.578125 15.9375 L 15.554688 15.96875 L 15.53125 16.007812 L 15.484375 16.070312 L 15.457031 16.105469 L 15.433594 16.136719 L 15.378906 16.199219 L 15.296875 16.28125 L 15.238281 16.332031 L 15.210938 16.355469 L 15.179688 16.382812 L 15.148438 16.402344 L 15.117188 16.425781 L 15.023438 16.484375 L 14.953125 16.515625 L 14.921875 16.53125 L 14.886719 16.542969 L 14.855469 16.558594 L 14.820312 16.570312 L 14.75 16.585938 L 14.714844 16.597656 L 14.679688 16.601562 L 14.609375 16.613281 L 14.570312 16.617188 L 14.421875 16.617188 L 14.386719 16.613281 L 14.316406 16.601562 L 14.28125 16.597656 L 14.242188 16.585938 L 14.207031 16.578125 L 14.175781 16.570312 L 14.105469 16.542969 L 14.070312 16.53125 L 14.039062 16.515625 L 14.003906 16.5 L 13.972656 16.484375 L 13.90625 16.445312 L 13.878906 16.425781 L 13.847656 16.402344 L 13.816406 16.382812 L 13.785156 16.355469 L 13.753906 16.332031 L 13.726562 16.308594 L 13.699219 16.28125 L 13.667969 16.253906 L 13.613281 16.199219 L 13.585938 16.167969 L 13.5625 16.136719 L 13.507812 16.070312 L 13.460938 16.007812 L 13.4375 15.96875 L 13.414062 15.9375 L 13.394531 15.898438 L 13.371094 15.863281 L 13.273438 15.667969 L 13.238281 15.582031 L 13.191406 15.453125 L 13.164062 15.367188 L 13.140625 15.273438 L 13.121094 15.183594 L 13.113281 15.136719 L 13.09375 15.039062 L 13.089844 14.992188 L 13.078125 14.890625 L 13.066406 14.742188 L 13.066406 14.539062 L 13.082031 14.335938 L 13.089844 14.289062 L 13.09375 14.238281 L 13.105469 14.195312 L 13.121094 14.097656 L 13.140625 14.003906 L 13.152344 13.960938 L 13.164062 13.914062 L 13.179688 13.867188 L 13.191406 13.824219 L 13.238281 13.695312 L 13.257812 13.652344 L 13.273438 13.613281 L 13.332031 13.492188 L 13.351562 13.453125 L 13.371094 13.417969 L 13.394531 13.378906 L 13.414062 13.34375 L 13.484375 13.238281 L 13.507812 13.207031 L 13.535156 13.175781 L 13.585938 13.113281 L 13.640625 13.054688 L 13.667969 13.027344 L 13.699219 13 L 13.726562 12.972656 L 13.785156 12.921875 L 13.847656 12.875 L 13.90625 12.835938 L 13.972656 12.796875 L 14.003906 12.78125 L 14.039062 12.765625 L 14.070312 12.75 L 14.140625 12.722656 L 14.175781 12.710938 L 14.207031 12.699219 L 14.242188 12.691406 L 14.28125 12.683594 L 14.316406 12.675781 L 14.386719 12.664062 L 14.421875 12.664062 L 14.460938 12.660156 Z M 7.539062 12.660156 L 7.578125 12.664062 L 7.613281 12.664062 L 7.683594 12.675781 L 7.71875 12.683594 L 7.757812 12.691406 L 7.792969 12.699219 L 7.824219 12.710938 L 7.859375 12.722656 L 7.929688 12.75 L 7.960938 12.765625 L 7.996094 12.78125 L 8.027344 12.796875 L 8.09375 12.835938 L 8.152344 12.875 L 8.214844 12.921875 L 8.273438 12.972656 L 8.304688 13 L 8.359375 13.054688 L 8.414062 13.113281 L 8.464844 13.175781 L 8.492188 13.207031 L 8.515625 13.238281 L 8.585938 13.34375 L 8.605469 13.378906 L 8.628906 13.417969 L 8.648438 13.453125 L 8.667969 13.492188 L 8.726562 13.613281 L 8.742188 13.652344 L 8.761719 13.695312 L 8.808594 13.824219 L 8.820312 13.867188 L 8.835938 13.914062 L 8.847656 13.960938 L 8.859375 14.003906 L 8.878906 14.097656 L 8.894531 14.195312 L 8.90625 14.238281 L 8.910156 14.289062 L 8.917969 14.335938 L 8.933594 14.539062 L 8.933594 14.742188 L 8.921875 14.890625 L 8.910156 14.992188 L 8.90625 15.039062 L 8.886719 15.136719 L 8.878906 15.183594 L 8.859375 15.273438 L 8.835938 15.367188 L 8.808594 15.453125 L 8.761719 15.582031 L 8.726562 15.667969 L 8.628906 15.863281 L 8.609375 15.898438 L 8.585938 15.9375 L 8.5625 15.96875 L 8.539062 16.007812 L 8.492188 16.070312 L 8.4375 16.136719 L 8.414062 16.167969 L 8.386719 16.199219 L 8.304688 16.28125 L 8.246094 16.332031 L 8.214844 16.355469 L 8.183594 16.382812 L 8.152344 16.402344 L 8.121094 16.425781 L 8.09375 16.445312 L 8.027344 16.484375 L 7.996094 16.5 L 7.960938 16.515625 L 7.929688 16.53125 L 7.894531 16.542969 L 7.824219 16.570312 L 7.792969 16.578125 L 7.757812 16.585938 L 7.71875 16.597656 L 7.683594 16.601562 L 7.613281 16.613281 L 7.578125 16.617188 L 7.429688 16.617188 L 7.390625 16.613281 L 7.320312 16.601562 L 7.285156 16.597656 L 7.25 16.585938 L 7.179688 16.570312 L 7.144531 16.558594 L 7.113281 16.542969 L 7.078125 16.53125 L 7.046875 16.515625 L 6.976562 16.484375 L 6.882812 16.425781 L 6.851562 16.402344 L 6.820312 16.382812 L 6.789062 16.355469 L 6.761719 16.332031 L 6.703125 16.28125 L 6.621094 16.199219 L 6.566406 16.136719 L 6.542969 16.105469 L 6.515625 16.070312 L 6.46875 16.007812 L 6.445312 15.96875 L 6.421875 15.9375 L 6.402344 15.898438 L 6.378906 15.863281 L 6.335938 15.785156 L 6.316406 15.746094 L 6.300781 15.707031 L 6.28125 15.667969 L 6.246094 15.582031 L 6.199219 15.453125 L 6.171875 15.367188 L 6.148438 15.273438 L 6.128906 15.183594 L 6.117188 15.136719 L 6.101562 15.039062 L 6.097656 14.992188 L 6.089844 14.941406 L 6.085938 14.890625 L 6.078125 14.792969 L 6.074219 14.742188 L 6.074219 14.539062 L 6.089844 14.335938 L 6.097656 14.289062 L 6.101562 14.238281 L 6.109375 14.195312 L 6.128906 14.097656 L 6.148438 14.003906 L 6.160156 13.960938 L 6.171875 13.914062 L 6.1875 13.867188 L 6.199219 13.824219 L 6.261719 13.652344 L 6.28125 13.613281 L 6.335938 13.492188 L 6.359375 13.453125 L 6.378906 13.417969 L 6.402344 13.378906 L 6.421875 13.34375 L 6.492188 13.238281 L 6.515625 13.207031 L 6.542969 13.175781 L 6.59375 13.113281 L 6.648438 13.054688 L 6.730469 12.972656 L 6.789062 12.921875 L 6.851562 12.875 L 6.976562 12.796875 L 7.046875 12.765625 L 7.078125 12.75 L 7.113281 12.734375 L 7.144531 12.722656 L 7.214844 12.699219 L 7.320312 12.675781 L 7.390625 12.664062 L 7.429688 12.664062 L 7.464844 12.660156 Z M 7.492188 13.539062 L 7.484375 13.542969 L 7.46875 13.542969 L 7.449219 13.550781 L 7.441406 13.550781 L 7.402344 13.570312 L 7.390625 13.578125 L 7.382812 13.582031 L 7.351562 13.601562 L 7.339844 13.609375 L 7.328125 13.621094 L 7.292969 13.652344 L 7.253906 13.691406 L 7.21875 13.738281 L 7.203125 13.753906 L 7.144531 13.851562 L 7.117188 13.894531 L 7.109375 13.917969 L 7.085938 13.964844 L 7.054688 14.042969 L 7.046875 14.070312 L 7.027344 14.125 L 7.019531 14.15625 L 7.011719 14.183594 L 7.003906 14.214844 L 6.996094 14.242188 L 6.984375 14.304688 L 6.976562 14.335938 L 6.972656 14.367188 L 6.96875 14.402344 L 6.964844 14.433594 L 6.960938 14.46875 L 6.960938 14.5 L 6.953125 14.570312 L 6.953125 14.710938 L 6.957031 14.742188 L 6.960938 14.777344 L 6.960938 14.808594 L 6.96875 14.878906 L 6.976562 14.941406 L 6.984375 14.972656 L 7.003906 15.066406 L 7.011719 15.097656 L 7.027344 15.152344 L 7.035156 15.183594 L 7.046875 15.210938 L 7.054688 15.238281 L 7.074219 15.289062 L 7.132812 15.40625 L 7.167969 15.46875 L 7.191406 15.507812 L 7.203125 15.523438 L 7.21875 15.539062 L 7.230469 15.558594 L 7.242188 15.574219 L 7.28125 15.613281 L 7.304688 15.640625 L 7.328125 15.660156 L 7.363281 15.683594 L 7.382812 15.699219 L 7.390625 15.703125 L 7.402344 15.710938 L 7.425781 15.722656 L 7.441406 15.726562 L 7.449219 15.730469 L 7.453125 15.734375 L 7.46875 15.734375 L 7.472656 15.738281 L 7.535156 15.738281 L 7.539062 15.734375 L 7.566406 15.726562 L 7.578125 15.722656 L 7.597656 15.714844 L 7.605469 15.710938 L 7.617188 15.703125 L 7.625 15.699219 L 7.644531 15.683594 L 7.667969 15.667969 L 7.675781 15.660156 L 7.703125 15.640625 L 7.75 15.585938 L 7.777344 15.558594 L 7.789062 15.539062 L 7.8125 15.507812 L 7.824219 15.488281 L 7.839844 15.46875 L 7.875 15.40625 L 7.921875 15.3125 L 7.929688 15.285156 L 7.941406 15.261719 L 7.949219 15.238281 L 7.960938 15.210938 L 7.96875 15.183594 L 7.980469 15.152344 L 7.996094 15.097656 L 8.003906 15.066406 L 8.007812 15.035156 L 8.023438 14.972656 L 8.027344 14.941406 L 8.039062 14.878906 L 8.046875 14.808594 L 8.046875 14.777344 L 8.050781 14.742188 L 8.050781 14.675781 L 8.054688 14.640625 L 8.050781 14.605469 L 8.050781 14.535156 L 8.046875 14.503906 L 8.046875 14.46875 L 8.042969 14.4375 L 8.035156 14.367188 L 8.027344 14.335938 L 8.023438 14.304688 L 8.007812 14.242188 L 7.996094 14.183594 L 7.988281 14.15625 L 7.980469 14.125 L 7.96875 14.097656 L 7.960938 14.070312 L 7.949219 14.042969 L 7.941406 14.019531 L 7.929688 13.992188 L 7.921875 13.964844 L 7.886719 13.894531 L 7.863281 13.851562 L 7.839844 13.8125 L 7.824219 13.792969 L 7.800781 13.753906 L 7.789062 13.738281 L 7.761719 13.707031 L 7.75 13.691406 L 7.738281 13.679688 L 7.703125 13.640625 L 7.675781 13.621094 L 7.667969 13.609375 L 7.65625 13.601562 L 7.625 13.582031 L 7.617188 13.578125 L 7.605469 13.570312 L 7.589844 13.5625 L 7.578125 13.558594 L 7.574219 13.554688 L 7.558594 13.550781 L 7.550781 13.546875 L 7.546875 13.546875 L 7.539062 13.542969 L 7.519531 13.542969 L 7.515625 13.539062 Z M 14.484375 13.539062 L 14.480469 13.542969 L 14.460938 13.542969 L 14.453125 13.546875 L 14.449219 13.546875 L 14.441406 13.550781 L 14.433594 13.550781 L 14.425781 13.554688 L 14.421875 13.558594 L 14.410156 13.5625 L 14.394531 13.570312 L 14.382812 13.578125 L 14.375 13.582031 L 14.34375 13.601562 L 14.332031 13.609375 L 14.324219 13.621094 L 14.296875 13.640625 L 14.261719 13.679688 L 14.25 13.691406 L 14.238281 13.707031 L 14.222656 13.722656 L 14.199219 13.753906 L 14.175781 13.792969 L 14.160156 13.8125 L 14.136719 13.851562 L 14.125 13.875 L 14.113281 13.894531 L 14.078125 13.964844 L 14.070312 13.992188 L 14.058594 14.019531 L 14.050781 14.042969 L 14.039062 14.070312 L 14.03125 14.097656 L 14.019531 14.125 L 14.011719 14.15625 L 14.003906 14.183594 L 13.992188 14.242188 L 13.976562 14.304688 L 13.972656 14.335938 L 13.964844 14.367188 L 13.960938 14.402344 L 13.957031 14.433594 L 13.953125 14.46875 L 13.953125 14.5 L 13.949219 14.535156 L 13.949219 14.605469 L 13.945312 14.640625 L 13.949219 14.675781 L 13.949219 14.742188 L 13.953125 14.777344 L 13.953125 14.808594 L 13.960938 14.878906 L 13.972656 14.941406 L 13.976562 14.972656 L 13.992188 15.035156 L 13.996094 15.066406 L 14.003906 15.097656 L 14.019531 15.152344 L 14.03125 15.183594 L 14.039062 15.210938 L 14.050781 15.234375 L 14.058594 15.261719 L 14.070312 15.285156 L 14.078125 15.3125 L 14.125 15.40625 L 14.136719 15.425781 L 14.160156 15.46875 L 14.175781 15.488281 L 14.1875 15.507812 L 14.210938 15.539062 L 14.222656 15.558594 L 14.25 15.585938 L 14.296875 15.640625 L 14.324219 15.660156 L 14.332031 15.667969 L 14.355469 15.683594 L 14.375 15.699219 L 14.382812 15.703125 L 14.394531 15.710938 L 14.402344 15.714844 L 14.421875 15.722656 L 14.425781 15.726562 L 14.4375 15.726562 L 14.449219 15.730469 L 14.453125 15.734375 L 14.46875 15.738281 L 14.527344 15.738281 L 14.53125 15.734375 L 14.546875 15.734375 L 14.550781 15.730469 L 14.558594 15.726562 L 14.574219 15.722656 L 14.597656 15.710938 L 14.609375 15.703125 L 14.617188 15.699219 L 14.636719 15.683594 L 14.671875 15.660156 L 14.695312 15.640625 L 14.71875 15.613281 L 14.757812 15.574219 L 14.769531 15.558594 L 14.78125 15.539062 L 14.796875 15.523438 L 14.808594 15.507812 L 14.832031 15.46875 L 14.867188 15.40625 L 14.925781 15.289062 L 14.945312 15.238281 L 14.953125 15.210938 L 14.964844 15.183594 L 14.972656 15.152344 L 14.988281 15.097656 L 14.996094 15.066406 L 15.015625 14.972656 L 15.023438 14.941406 L 15.03125 14.878906 L 15.039062 14.808594 L 15.039062 14.777344 L 15.042969 14.742188 L 15.046875 14.710938 L 15.046875 14.570312 L 15.042969 14.5 L 15.039062 14.46875 L 15.035156 14.433594 L 15.03125 14.402344 L 15.027344 14.367188 L 15.023438 14.335938 L 15.015625 14.304688 L 15.011719 14.273438 L 15.003906 14.242188 L 14.996094 14.214844 L 14.988281 14.183594 L 14.980469 14.15625 L 14.972656 14.125 L 14.953125 14.070312 L 14.945312 14.042969 L 14.933594 14.019531 L 14.925781 13.992188 L 14.914062 13.964844 L 14.890625 13.917969 L 14.882812 13.894531 L 14.855469 13.851562 L 14.796875 13.753906 L 14.78125 13.738281 L 14.746094 13.691406 L 14.707031 13.652344 L 14.683594 13.632812 L 14.660156 13.609375 L 14.648438 13.601562 L 14.617188 13.582031 L 14.609375 13.578125 L 14.597656 13.570312 L 14.558594 13.550781 L 14.550781 13.550781 L 14.53125 13.542969 L 14.515625 13.542969 L 14.507812 13.539062 Z M 14.484375 13.539062 "/>
<path style=" stroke:none;fill-rule:nonzero;fill:rgb(0%,0%,0%);fill-opacity:1;" d="M 17.726562 8.824219 C 15.308594 8.824219 13.328125 6.84375 13.328125 4.425781 C 13.328125 2.003906 15.308594 0.0273438 17.726562 0.0273438 C 20.148438 0.0273438 22.128906 2.003906 22.128906 4.425781 C 22.128906 6.84375 20.148438 8.824219 17.726562 8.824219 Z M 17.726562 0.90625 C 15.792969 0.90625 14.207031 2.488281 14.207031 4.425781 C 14.207031 6.363281 15.792969 7.945312 17.726562 7.945312 C 19.664062 7.945312 21.246094 6.363281 21.246094 4.425781 C 21.246094 2.488281 19.664062 0.90625 17.726562 0.90625 Z M 20.28125 2.972656 L 19.621094 2.402344 L 17.242188 5.171875 L 15.792969 4.074219 L 15.265625 4.777344 L 17.332031 6.363281 Z M 20.28125 2.972656 "/>
</g>
</svg>
